<?xml version="1.0" encoding="UTF-8"?>
<svg id="Layer_1" xmlns="http://www.w3.org/2000/svg" version="1.1" viewBox="0 0 500 78.18">
  <!-- Generator: Adobe Illustrator 30.1.0, SVG Export Plug-In . SVG Version: 2.1.1 Build 136)  -->
  <defs>
    <style>
      .st0, .st1, .st2, .st3 {
        fill: #fff;
      }

      .st0, .st4 {
        stroke: #fff;
      }

      .st0, .st4, .st3 {
        stroke-miterlimit: 10;
        stroke-width: .5px;
      }

      .st2 {
        fill-rule: evenodd;
      }

      .st4 {
        fill: #6f5aa5;
      }

      .st3 {
        stroke: #f2f2f2;
      }
    </style>
  </defs>
  <g>
    <g>
      <path class="st4" d="M365.89,35.09c-2.29-2.29-6.18-2.12-8.47.17-3.06,3.06-6.91,12.51-8.58,16.88,1.61-4.41,5.05-14.34,5.05-18.82,0-3.33-2.63-6.28-5.87-6.28s-5.87,2.95-5.87,6.28c0,4.79,3.92,15.78,5.35,19.64-1.49-3.88-5.75-14.51-9.02-17.78-2.29-2.29-6.18-2.46-8.47-.17-2.29,2.29-2.38,6.47.17,8.47,4.49,3.51,17.04,10.46,17.82,10.89,0,0,0,.02,0,.02,0,0,.01,0,.02-.01,0,0,.02.01.02.01,0,0,0-.01,0-.02.79-.39,13.78-6.91,17.68-10.82,2.29-2.29,2.46-6.18.17-8.47ZM348.02,54.32s0,.02,0,.02c0,0,0,0,0,0,0,0,0-.01,0-.02Z"/>
      <g>
        <path class="st0" d="M359.87,12.31h-48.7c-4.73,0-8.58,3.85-8.58,8.58v48.7c0,4.73,3.85,8.58,8.58,8.58h48.7c4.73,0,8.58-3.85,8.58-8.58V20.89c0-4.73-3.85-8.58-8.58-8.58ZM359.87,13.67c1.72,0,3.3.6,4.54,1.61l-47.91,25.81,18.09-27.42h25.28ZM347.99,52.02c-1.52-4.12-5.17-14.53-5.17-19.03,0-3.03,2.37-5.59,5.17-5.59s5.17,2.56,5.17,5.59c0,4.51-3.66,14.91-5.17,19.03ZM357.92,35.75c.98-.98,2.35-1.56,3.76-1.6.05,0,.1,0,.16,0,1.38,0,2.64.51,3.57,1.43,1.98,1.98,1.91,5.41-.17,7.49-3.1,3.1-12.26,7.99-15.96,9.9,1.52-4.01,5.55-14.12,8.65-17.22ZM342.76,40.44c-1.26-2.41-2.58-4.54-3.78-5.74-1.13-1.13-2.59-1.79-4.09-1.96l8.36-4.5c-1.12,1.26-1.82,2.94-1.82,4.76s.56,4.57,1.33,7.45ZM338,35.68c3.07,3.07,7.14,13.09,8.73,17.19-3.69-2.08-12.55-7.14-16.11-9.93-.96-.75-1.54-1.92-1.62-3.28-.09-1.55.47-3.1,1.52-4.15.96-.96,2.26-1.44,3.58-1.44,1.4,0,2.83.54,3.9,1.61ZM328.01,41.64l-4.43-2.81,4.71-2.54c-.51,1.05-.75,2.25-.68,3.44.04.67.18,1.31.4,1.9ZM315.2,13.67h17.75l-17.75,26.91V13.67ZM311.17,13.67h2.67v26.74l-9.59-21.57c.89-2.98,3.65-5.17,6.92-5.17ZM303.95,21.53l8.78,19.76-8.78-5.44v-14.32ZM303.95,37.45l8.98,5.56-8.98,4.84v-10.4ZM326.57,76.66h-8.77v-12.86c0-2.42,1.97-4.38,4.38-4.38s4.38,1.97,4.38,4.38v12.86ZM367.09,69.59c0,3.98-3.24,7.22-7.22,7.22h-31.94v-13.02c0-3.17-2.58-5.75-5.75-5.75s-5.75,2.58-5.75,5.75v13.02h-5.26c-3.98,0-7.22-3.24-7.22-7.22v-20.19l18.35-9.78,44.8,28.41v1.56ZM367.09,66.42l-18.33-11.62c2.41-1.21,13.76-7.04,17.46-10.74.33-.33.62-.69.87-1.08v23.44ZM367.09,35.46c-.21-.3-.44-.59-.7-.86-1.23-1.23-2.92-1.89-4.74-1.84-1.76.05-3.48.78-4.7,2.01-1.19,1.19-2.47,3.26-3.7,5.63.77-2.86,1.32-5.56,1.32-7.41,0-3.78-3-6.97-6.56-6.97-.24,0-.48.02-.71.05l18.14-9.77c1.04,1.25,1.66,2.86,1.66,4.61v14.57Z"/>
        <path class="st0" d="M318.6,50.35c0,1.97,1.61,3.58,3.58,3.58s3.58-1.61,3.58-3.58-1.61-3.58-3.58-3.58-3.58,1.61-3.58,3.58ZM324.4,50.35c0,1.22-.99,2.22-2.22,2.22s-2.22-.99-2.22-2.22.99-2.22,2.22-2.22,2.22.99,2.22,2.22Z"/>
      </g>
    </g>
    <g>
      <g>
        <path class="st1" d="M387.32,17.23c.73-1.27,1.72-2.27,2.98-2.98,1.26-.71,2.67-1.07,4.24-1.07,1.83,0,3.43.47,4.81,1.41,1.38.94,2.34,2.24,2.89,3.89h-3.78c-.38-.78-.9-1.37-1.58-1.76-.68-.39-1.47-.59-2.36-.59-.95,0-1.8.22-2.55.67-.74.45-1.32,1.08-1.74,1.89-.41.81-.62,1.77-.62,2.86s.21,2.03.62,2.85c.41.82.99,1.45,1.74,1.9.74.45,1.59.67,2.55.67.89,0,1.68-.2,2.36-.6.68-.4,1.21-.99,1.58-1.77h3.78c-.55,1.67-1.51,2.98-2.87,3.91-1.37.93-2.98,1.4-4.82,1.4-1.56,0-2.98-.36-4.24-1.07-1.26-.71-2.25-1.7-2.98-2.97-.73-1.27-1.09-2.71-1.09-4.32s.36-3.05,1.09-4.33Z"/>
        <path class="st1" d="M403.95,19.73c.52-1.02,1.24-1.8,2.14-2.35.9-.55,1.9-.82,3.02-.82.97,0,1.82.2,2.55.59.73.39,1.31.88,1.75,1.48v-1.85h3.31v13h-3.31v-1.9c-.42.61-1.01,1.11-1.75,1.51-.74.4-1.6.6-2.57.6-1.1,0-2.09-.28-2.99-.84s-1.61-1.36-2.14-2.38c-.52-1.02-.79-2.2-.79-3.53s.26-2.48.79-3.5ZM412.93,21.22c-.31-.57-.74-1.01-1.27-1.31-.53-.3-1.1-.46-1.71-.46s-1.17.15-1.69.45c-.52.3-.93.73-1.26,1.3-.32.57-.48,1.25-.48,2.03s.16,1.47.48,2.05c.32.59.74,1.04,1.27,1.35.52.31,1.08.47,1.68.47s1.18-.15,1.71-.46c.53-.3.95-.74,1.27-1.31.31-.57.47-1.26.47-2.05s-.16-1.48-.47-2.05Z"/>
        <path class="st1" d="M421.12,29.41c-.84-.38-1.51-.9-2.01-1.56s-.76-1.38-.81-2.18h3.31c.06.5.31.92.74,1.24.43.33.97.49,1.61.49s1.11-.13,1.47-.38c.35-.25.53-.57.53-.96,0-.42-.22-.74-.65-.95-.43-.21-1.11-.44-2.05-.69-.97-.23-1.76-.48-2.38-.73s-1.15-.63-1.6-1.15c-.45-.52-.67-1.21-.67-2.09,0-.72.21-1.38.62-1.97.41-.59,1.01-1.06,1.78-1.41.77-.34,1.69-.52,2.73-.52,1.55,0,2.78.39,3.71,1.16s1.43,1.82,1.53,3.13h-3.14c-.05-.52-.26-.93-.65-1.23-.38-.3-.9-.46-1.54-.46-.59,0-1.05.11-1.37.33-.32.22-.48.52-.48.91,0,.44.22.77.66,1s1.12.46,2.04.69c.94.23,1.71.48,2.32.73.61.25,1.14.64,1.58,1.16.45.52.68,1.22.69,2.08,0,.75-.21,1.42-.62,2.02-.41.59-1.01,1.06-1.78,1.4-.77.34-1.68.5-2.71.5s-2.02-.19-2.86-.57Z"/>
        <path class="st1" d="M430.82,19.73c.52-1.02,1.24-1.8,2.14-2.35.9-.55,1.9-.82,3.02-.82.97,0,1.82.2,2.55.59.73.39,1.31.88,1.75,1.48v-1.85h3.31v13h-3.31v-1.9c-.42.61-1.01,1.11-1.75,1.51-.74.4-1.6.6-2.57.6-1.1,0-2.09-.28-2.99-.84s-1.61-1.36-2.14-2.38c-.52-1.02-.79-2.2-.79-3.53s.26-2.48.79-3.5ZM439.79,21.22c-.31-.57-.74-1.01-1.27-1.31-.53-.3-1.1-.46-1.71-.46s-1.17.15-1.69.45c-.52.3-.93.73-1.26,1.3-.32.57-.48,1.25-.48,2.03s.16,1.47.48,2.05c.32.59.74,1.04,1.27,1.35.52.31,1.08.47,1.68.47s1.18-.15,1.71-.46c.53-.3.95-.74,1.27-1.31.31-.57.47-1.26.47-2.05s-.16-1.48-.47-2.05Z"/>
        <path class="st1" d="M451.18,19.73c.52-1.02,1.24-1.8,2.15-2.35.91-.55,1.92-.82,3.03-.82.84,0,1.65.18,2.42.55.77.37,1.38.86,1.83,1.47v-6.17h3.33v17.36h-3.33v-1.92c-.41.64-.98,1.16-1.71,1.55-.74.39-1.59.59-2.56.59-1.09,0-2.1-.28-3-.84-.91-.56-1.62-1.36-2.15-2.38-.52-1.02-.79-2.2-.79-3.53s.26-2.48.79-3.5ZM460.16,21.22c-.31-.57-.74-1.01-1.27-1.31-.53-.3-1.1-.46-1.71-.46s-1.17.15-1.69.45c-.52.3-.93.73-1.26,1.3-.32.57-.48,1.25-.48,2.03s.16,1.47.48,2.05c.32.59.74,1.04,1.27,1.35.52.31,1.08.47,1.68.47s1.18-.15,1.71-.46c.53-.3.95-.74,1.27-1.31.31-.57.47-1.26.47-2.05s-.16-1.48-.47-2.05Z"/>
        <path class="st1" d="M478.32,24.26h-9.5c.08.94.41,1.67.99,2.21.58.53,1.29.8,2.14.8,1.22,0,2.09-.52,2.6-1.57h3.54c-.38,1.25-1.1,2.28-2.16,3.09-1.06.81-2.37,1.21-3.92,1.21-1.25,0-2.37-.28-3.37-.83-.99-.56-1.77-1.34-2.32-2.36-.56-1.02-.83-2.19-.83-3.52s.27-2.53.82-3.54c.55-1.02,1.31-1.8,2.3-2.35.99-.55,2.12-.82,3.4-.82s2.34.27,3.32.8c.98.53,1.74,1.29,2.28,2.26.54.98.81,2.1.81,3.37,0,.47-.03.89-.09,1.27ZM475.01,22.06c-.02-.84-.32-1.52-.92-2.03-.59-.51-1.32-.76-2.18-.76-.81,0-1.5.25-2.05.74-.56.49-.9,1.18-1.02,2.05h6.17Z"/>
      </g>
      <g>
        <g>
          <path class="st1" d="M397.14,35.35v2.65h-6.83v4.2h5.23v2.6h-5.23v6.92h-3.28v-16.38h10.11Z"/>
          <path class="st1" d="M400.23,51.1c-1-.56-1.79-1.34-2.36-2.36-.57-1.02-.86-2.19-.86-3.52s.29-2.5.88-3.52c.59-1.02,1.39-1.8,2.4-2.36,1.02-.56,2.15-.83,3.4-.83s2.39.28,3.4.83c1.02.56,1.82,1.34,2.4,2.36.59,1.02.88,2.19.88,3.52s-.3,2.5-.9,3.52c-.6,1.02-1.42,1.8-2.44,2.36-1.02.56-2.17.83-3.44.83s-2.38-.28-3.38-.83ZM405.29,48.64c.52-.29.94-.72,1.26-1.3.31-.58.47-1.28.47-2.11,0-1.24-.32-2.19-.97-2.85-.65-.66-1.44-1-2.38-1s-1.72.33-2.36,1c-.63.67-.95,1.62-.95,2.85s.31,2.19.93,2.85c.62.67,1.4,1,2.33,1,.59,0,1.15-.14,1.68-.43Z"/>
          <path class="st1" d="M416.88,39.13c.68-.39,1.46-.59,2.33-.59v3.45h-.87c-1.03,0-1.81.24-2.33.73-.52.49-.79,1.33-.79,2.53v6.48h-3.28v-13h3.28v2.02c.42-.69.97-1.23,1.65-1.62Z"/>
          <path class="st1" d="M440.27,40.01c.98.98,1.47,2.34,1.47,4.09v7.63h-3.28v-7.18c0-1.02-.26-1.8-.77-2.33-.52-.54-1.22-.81-2.11-.81s-1.6.27-2.12.81c-.52.54-.79,1.32-.79,2.33v7.18h-3.28v-7.18c0-1.02-.26-1.8-.77-2.33-.52-.54-1.22-.81-2.11-.81s-1.62.27-2.15.81c-.52.54-.79,1.32-.79,2.33v7.18h-3.28v-13h3.28v1.57c.42-.55.97-.98,1.63-1.29.66-.31,1.4-.47,2.19-.47,1.02,0,1.92.22,2.72.65.8.43,1.42,1.04,1.85,1.84.42-.75,1.04-1.35,1.84-1.81.81-.45,1.68-.68,2.62-.68,1.6,0,2.88.49,3.86,1.47Z"/>
          <path class="st1" d="M443.98,41.68c.52-1.02,1.24-1.8,2.14-2.35.9-.55,1.9-.82,3.02-.82.97,0,1.82.2,2.55.59.73.39,1.31.88,1.75,1.48v-1.85h3.31v13h-3.31v-1.9c-.42.61-1.01,1.11-1.75,1.51-.74.4-1.6.6-2.57.6-1.1,0-2.09-.28-2.99-.84s-1.61-1.36-2.14-2.38c-.52-1.02-.79-2.2-.79-3.53s.26-2.48.79-3.5ZM452.96,43.17c-.31-.57-.74-1.01-1.27-1.31-.53-.3-1.1-.46-1.71-.46s-1.17.15-1.69.45c-.52.3-.93.73-1.26,1.3-.32.57-.48,1.25-.48,2.03s.16,1.47.48,2.05c.32.59.74,1.04,1.27,1.35.52.31,1.08.47,1.68.47s1.18-.15,1.71-.46c.53-.3.95-.74,1.27-1.31.31-.57.47-1.26.47-2.05s-.16-1.48-.47-2.05Z"/>
          <path class="st1" d="M459.1,41.7c.55-1.01,1.31-1.79,2.28-2.35s2.08-.83,3.33-.83c1.61,0,2.94.4,4,1.21,1.06.81,1.76,1.94,2.12,3.39h-3.54c-.19-.56-.5-1-.95-1.33-.45-.32-1-.48-1.65-.48-.94,0-1.68.34-2.23,1.02-.55.68-.82,1.65-.82,2.9s.27,2.19.82,2.87c.55.68,1.29,1.02,2.23,1.02,1.33,0,2.2-.59,2.6-1.78h3.54c-.36,1.41-1.07,2.53-2.14,3.36-1.06.83-2.39,1.24-3.99,1.24-1.25,0-2.36-.28-3.33-.83-.97-.56-1.73-1.34-2.28-2.35s-.82-2.19-.82-3.53.27-2.52.82-3.53Z"/>
          <path class="st1" d="M472.33,41.68c.52-1.02,1.24-1.8,2.14-2.35.9-.55,1.9-.82,3.02-.82.97,0,1.82.2,2.55.59.73.39,1.31.88,1.75,1.48v-1.85h3.31v13h-3.31v-1.9c-.42.61-1.01,1.11-1.75,1.51-.74.4-1.6.6-2.57.6-1.1,0-2.09-.28-2.99-.84s-1.61-1.36-2.14-2.38c-.52-1.02-.79-2.2-.79-3.53s.26-2.48.79-3.5ZM475.52,35.17c.51-.51,1.15-.76,1.94-.76.33,0,.62.05.87.15.25.1.53.25.84.43.47.3.86.45,1.17.45.58,0,.91-.34,1.01-1.01h1.76c-.14,1.03-.47,1.8-.97,2.31-.51.51-1.15.76-1.94.76-.33,0-.62-.05-.87-.15-.25-.1-.53-.25-.84-.43-.45-.31-.84-.47-1.17-.47-.58,0-.92.34-1.03,1.03h-1.74c.14-1.03.47-1.8.97-2.31ZM481.3,43.17c-.31-.57-.74-1.01-1.27-1.31-.53-.3-1.1-.46-1.71-.46s-1.17.15-1.69.45c-.52.3-.93.73-1.26,1.3-.32.57-.48,1.25-.48,2.03s.16,1.47.48,2.05c.32.59.74,1.04,1.27,1.35.52.31,1.08.47,1.68.47s1.18-.15,1.71-.46c.53-.3.95-.74,1.27-1.31.31-.57.47-1.26.47-2.05s-.16-1.48-.47-2.05Z"/>
          <path class="st1" d="M489.84,51.1c-1-.56-1.79-1.34-2.36-2.36-.57-1.02-.86-2.19-.86-3.52s.29-2.5.88-3.52c.59-1.02,1.39-1.8,2.4-2.36,1.02-.56,2.15-.83,3.4-.83s2.39.28,3.4.83c1.02.56,1.82,1.34,2.4,2.36.59,1.02.88,2.19.88,3.52s-.3,2.5-.9,3.52c-.6,1.02-1.42,1.8-2.44,2.36-1.02.56-2.17.83-3.44.83s-2.38-.28-3.38-.83ZM494.9,48.64c.52-.29.94-.72,1.26-1.3.31-.58.47-1.28.47-2.11,0-1.24-.32-2.19-.97-2.85-.65-.66-1.44-1-2.38-1s-1.72.33-2.36,1c-.63.67-.95,1.62-.95,2.85s.31,2.19.93,2.85c.62.67,1.4,1,2.33,1,.59,0,1.15-.14,1.68-.43Z"/>
        </g>
        <rect class="st1" x="460.86" y="53.83" width="7.01" height="2.58"/>
      </g>
      <g>
        <path class="st3" d="M388.97,76.16h5.18v1.57h-7.11v-14.8h1.93v13.22Z"/>
        <path class="st3" d="M394.79,60.84l-.25,4.22h-1.34l-.28-4.22h1.87Z"/>
        <path class="st3" d="M408.25,62.94v14.8h-1.93v-6.71h-7.54v6.71h-1.93v-14.8h1.93v6.5h7.54v-6.5h1.93Z"/>
        <path class="st3" d="M412.83,64.51v4.95h5.39v1.59h-5.39v5.09h6.03v1.59h-7.96v-14.82h7.96v1.59h-6.03Z"/>
        <path class="st3" d="M428.56,77.74l-3.52-6.05h-2.34v6.05h-1.93v-14.8h4.78c1.12,0,2.06.19,2.83.57.77.38,1.35.9,1.73,1.55.38.65.57,1.39.57,2.23,0,1.02-.29,1.92-.88,2.7-.59.78-1.47,1.29-2.64,1.55l3.71,6.2h-2.31ZM422.7,70.14h2.84c1.05,0,1.83-.26,2.36-.77.52-.52.79-1.21.79-2.07s-.26-1.56-.77-2.04c-.52-.48-1.31-.72-2.37-.72h-2.84v5.6Z"/>
        <path class="st3" d="M447.79,63.05v14.69h-1.93v-10.95l-4.88,10.95h-1.36l-4.9-10.97v10.97h-1.93v-14.69h2.08l5.43,12.14,5.43-12.14h2.06Z"/>
        <path class="st3" d="M452.38,62.94v14.8h-1.93v-14.8h1.93Z"/>
        <path class="st3" d="M463.76,62.94v1.57h-4.03v13.22h-1.93v-13.22h-4.05v-1.57h10.02Z"/>
        <path class="st3" d="M472.23,74.45h-6.45l-1.19,3.29h-2.04l5.35-14.71h2.23l5.33,14.71h-2.04l-1.19-3.29ZM471.67,72.87l-2.67-7.47-2.67,7.47h5.35Z"/>
        <path class="st3" d="M487.38,67.23c-.41-.86-1-1.53-1.78-2.01-.78-.47-1.68-.71-2.72-.71s-1.96.24-2.79.71-1.48,1.15-1.95,2.04c-.47.88-.71,1.91-.71,3.07s.24,2.18.71,3.06c.47.88,1.12,1.55,1.95,2.03s1.76.71,2.79.71c1.44,0,2.63-.43,3.57-1.29.93-.86,1.48-2.03,1.63-3.5h-5.9v-1.57h7.96v1.49c-.11,1.22-.5,2.33-1.15,3.34s-1.51,1.81-2.57,2.4c-1.06.59-2.24.88-3.55.88-1.37,0-2.63-.32-3.76-.97-1.13-.64-2.03-1.54-2.69-2.69-.66-1.15-.99-2.44-.99-3.88s.33-2.74.99-3.9c.66-1.15,1.55-2.05,2.69-2.7,1.13-.64,2.38-.97,3.76-.97,1.57,0,2.96.39,4.17,1.17,1.21.78,2.09,1.88,2.64,3.29h-2.31Z"/>
        <path class="st3" d="M493.94,64.51v4.95h5.39v1.59h-5.39v5.09h6.03v1.59h-7.96v-14.82h7.96v1.59h-6.03Z"/>
      </g>
    </g>
  </g>
  <g>
    <path class="st1" d="M102.74,68.3c-.52-.39-1.17-.71-1.93-.96,1.67-.87,2.51-1.96,2.51-3.23,0-.82-.26-1.58-.77-2.26-.51-.68-1.29-1.18-2.31-1.51-.71-.23-1.78-.33-3.27-.33-1.05,0-1.85.01-2.36.03-1.26.05-2.39.13-3.37.21l-1.22.07c-.09,0-.22.03-.37.07l-.16.04v.72l.16.04c.24.05.54.09.91.09.5.02,1.09.08,1.74.17l.02,2.73c.05,1.66.08,3.66.08,5.92v1.34c0,.09,0,.42.03,1,.01.19.01.36.01.48,0,1.4-.05,2.27-.15,2.59-.04.13-.1.22-.2.27-.05.03-.34.14-1.77.43-.19.05-.32.11-.39.19-.08.08-.12.21-.12.37v.33l.18.02c.29.03.6.04.9.04.27,0,1.14,0,2.62-.02l2.34-.07h1.92c2.08,0,3.74-.52,4.94-1.55,1.2-1.04,1.82-2.24,1.82-3.58,0-.8-.13-1.45-.37-1.95-.33-.67-.81-1.25-1.43-1.71h.01ZM99.76,66.27c-.62.76-1.84,1.15-3.62,1.15-.4,0-.8-.03-1.16-.09l-.09-1.88v-.92s.03-1.56.03-1.56c0-.26,0-.52-.01-.79-.02-.4-.03-.64-.03-.72v-.24c1.23-.29,2.72-.29,4.07.16.41.14.75.35,1.03.62.27.28.47.59.57.93.11.35.16.7.16,1.04,0,.76-.32,1.53-.95,2.31h0ZM101.57,73.62c-.19.47-.46.88-.81,1.21-.35.34-.65.58-.9.71-.55.29-1.24.46-2.05.52-1.03-.01-1.74-.14-2.11-.38-.36-.24-.56-.51-.61-.82-.07-.36-.11-1.55-.14-3.55l.02-2.07-.02-.47c0-.07,0-.15,0-.27.24-.03.86-.05,2.43-.05.78,0,1.5.13,2.14.37.64.24,1.12.54,1.43.91.32.37.55.8.68,1.28.14.49.2.92.2,1.25,0,.43-.1.89-.29,1.37h0Z"/>
    <path class="st1" d="M139.78,76.46l-.07-.03c-.16-.08-.44-.18-.86-.3-.11-.03-.31-.09-.6-.15-.32-.08-.4-.12-.4-.12-.08-.07-.22-.24-.42-.67-.16-.36-.53-1.37-1.07-2.99l-3-8.17c-.36-.91-.61-1.55-.76-1.99-.28-.85-.62-1.65-.99-2.39l-.05-.11-.59-.02-.52.04-.04.13c-.26.82-.48,1.45-.65,1.92-.68,1.79-1.16,3.09-1.37,3.66l-1.21,3.39c-.2.57-.41,1.11-.61,1.61-.08.18-.25.68-.5,1.41-.55,1.59-1.06,2.84-1.49,3.69-.2.37-.43.63-.69.76-.03.02-.21.08-1.09.16-.14.01-.25.02-.32.02,0,0-.21,0-.5-.03-.56-.12-.99-.25-1.25-.37-.34-.16-.62-.37-.85-.61-.16-.18-.53-.65-1.32-1.91l-1.63-2.81c-.47-.78-.86-1.47-1.14-2.05.14-.08.3-.18.5-.28,1.72-.87,2.59-2.15,2.59-3.8,0-.87-.24-1.67-.72-2.38-.48-.71-1.12-1.22-1.93-1.52-.8-.3-2.14-.44-4.1-.44l-3.38.04h-1.05c-.18,0-.37.01-.57.03-.18.02-.29.03-.33.03-.37.01-.6.07-.72.18l-.04.04-.02.05c-.03.11-.04.21-.04.29,0,.16.07.3.19.37.08.05.21.1,1.18.23.79.11,1.02.28,1.09.38.06.08.2.41.19,1.67v2.32s0,3.23,0,3.23l-.03,1.75.04,1.53c0,.36,0,.72-.03,1.1-.04.91-.1,2.06-.1,2.34v.1c-.09.2-.16.24-.17.24-.07.03-.41.1-2.07.3h-.06l-.04.05c-.17.14-.25.29-.25.46l.05.26.44.08c.7-.03,1.09-.04,1.16-.04h1.71s1.74-.02,1.74-.02c.1,0,.23,0,.38.01.31.02.86.03,1.64.03.1,0,.27-.02.53-.07l.16-.03v-.17c0-.19-.05-.35-.15-.47l-.04-.05-.59-.15c-1.01-.25-1.31-.37-1.39-.42-.13-.08-.22-.18-.26-.27-.07-.27-.1-.48-.1-.63v-4.41c0-.68,0-1.17.02-1.48h1.27c.24,0,.43.03.56.1.09.05.27.2.56.6l1.91,3.49c.84,1.43,1.54,2.7,2.14,3.85l.05.1h.11c.21.03.36.04.48.04,1.58,0,2.95,0,4.13-.03h.03c.15,0,.5,0,.77-.02l.42-.02c.24-.01.42-.02.54-.02.18,0,.48,0,.89.03.93.04,1.72.07,2.4.07.21,0,.5,0,.89-.02h.15l.04-.14c.03-.11.05-.24.05-.29,0-.16-.1-.34-.32-.37l-1.74-.15c-.24-.03-.41-.07-.55-.11-.06-.15-.07-.2-.07-.21,0-.07.08-.41.71-2.17l1.13-3.55c.03-.09.08-.23.16-.42.31-.04.54-.05.77-.05h.82s2.75-.02,2.75-.02c.22,0,.49.02.78.07.78,2.12,1.21,3.33,1.32,3.7.12.4.26.81.41,1.24.28.82.32,1.06.32,1.14,0,.03,0,.08-.04.19-.16.05-.37.08-.65.09l-1.36.09c-.11.01-.23.05-.35.11l-.07.03-.03.08c-.05.13-.08.27-.08.42v.12l.1.06c.1.05.21.09.36.1h.28c.07,0,.16,0,.26.02.12.01.23.02.34.02l1.55-.02,1.29.03c1.11.03,1.88.04,2.32.04.11,0,.31,0,.59-.01h.15l.04-.15c.03-.11.04-.19.04-.25,0-.08-.02-.17-.07-.29l-.03-.08h-.01ZM132.67,68.71c-.43.03-.93.04-1.5.04-1.08,0-2.03-.02-2.9-.07.17-.52.54-1.63.63-1.89.24-.74.64-1.78,1.18-3.11.16-.4.28-.67.37-.87l1.08,2.75c.06.15.37.98.93,2.47.08.22.16.44.22.68h0ZM111.16,62.16c0-.21.01-.49.04-.84.29-.02.52-.03.71-.03.9,0,1.69.16,2.34.48.64.31,1.09.71,1.35,1.16.35.61.53,1.21.53,1.75,0,.5-.11.99-.33,1.45-.23.47-.5.82-.82,1.05-.32.24-.76.41-1.29.51-.79.14-1.5.21-2.1.21-.08,0-.18,0-.32,0-.03-.94-.04-1.74-.04-2.36v-1s-.05-2.4-.05-2.4h0Z"/>
    <path class="st1" d="M149.43,68.62c-.6-.46-1.6-1.05-2.98-1.76-1.78-.91-2.88-1.6-3.31-2.04-.39-.42-.6-.89-.6-1.39,0-.68.29-1.26.87-1.77.59-.52,1.35-.77,2.28-.77s1.66.26,2.27.78c.62.52,1.06,1.37,1.33,2.52l.03.13.29.05c.08,0,.17-.02.27-.07l.1-.04.02-.11c.03-.15.05-.47.07-.97l.05-1.16c0-.07-.01-.24-.1-1v-.09s-.08-.05-.08-.05c-.5-.36-1-.63-1.49-.79-.65-.2-1.43-.31-2.33-.31-1.63,0-2.95.43-3.93,1.3-.99.87-1.49,1.94-1.49,3.18,0,.69.14,1.31.42,1.84.37.66.93,1.3,1.67,1.89.46.36,1.4.92,2.92,1.71,1.45.75,2.42,1.42,2.88,1.97.46.54.68,1.13.68,1.77,0,.47-.15.96-.46,1.46-.3.5-.72.89-1.26,1.15-.54.27-1.14.41-1.78.41-1.05,0-2-.4-2.83-1.2-.84-.8-1.32-1.71-1.41-2.71-.02-.2-.07-.33-.14-.42-.09-.1-.2-.15-.34-.15-.22,0-.33.12-.37.19-.04.07-.09.2-.12.81,0,.64-.07,1.47-.19,2.48-.02.16-.03.29-.03.38,0,.21.09.41.26.58.1.1.34.27,1.22.59,1.08.37,2.23.57,3.4.57,1.35,0,2.46-.21,3.3-.64.84-.42,1.51-1.07,2.01-1.91.49-.83.74-1.74.74-2.7,0-.76-.16-1.46-.47-2.08-.31-.62-.78-1.17-1.4-1.64l.02.02Z"/>
    <path class="st1" d="M156.96,60.32l-3.42-.08h-1.29v.21c.02.28.08.46.21.55.1.07.33.15,1.31.23.64.05,1.11.14,1.4.28.04.08.07.16.09.21.05.59.08,1.16.08,1.7,0,.2,0,.38-.01.53l-.03.69.04,2.71-.03.93.05,1.55v2.77c.01,2.68-.17,3.11-.22,3.18-.05.07-.36.29-2.11.4-.21.02-.43.07-.64.15l-.14.05.05.72,3.47.02,1.77-.03c.55.03.94.04,1.16.04.37,0,.95-.01,1.73-.04h.2v-.31c0-.09-.02-.2-.04-.33l-.02-.06-.04-.04c-.17-.16-.5-.24-1.05-.26-.21,0-.5-.05-.88-.15-.29-.07-.42-.16-.48-.23-.06-.06-.14-.19-.19-.47-.03-.18-.07-.63-.07-1.81,0-.26,0-.74.03-1.46l-.05-8,.07-1.66c.02-.48.08-.69.14-.79.03-.05.07-.09.15-.13.09-.04.4-.13,1.43-.25.41-.05.7-.1.89-.15l.14-.03.02-.14c.02-.13.03-.26.03-.41v-.21h-.21c-1.5.06-2.65.09-3.49.09h0Z"/>
    <path class="st1" d="M176.12,72.44l-.05.13c-.27.65-.48,1.09-.63,1.3-.1.14-.18.25-.23.32-.18.31-.44.61-.78.9-.7.58-1.04.77-1.19.84-.23.09-.63.14-1.18.16l-2.22.08h-.87c-.92,0-1.51-.02-1.79-.02-.01-.04-.03-.13-.03-.28v-.8s.03-3.63.03-3.63l-.03-4.27v-3.96c0-.42.02-.71.02-.85,0-.69.15-.83.19-.86.04-.02.24-.08,1.28-.12,1.2-.04,1.33-.07,1.37-.07l.13-.02.03-.12c.05-.19.09-.38.1-.55v-.2s-.18-.02-.18-.02c-.28-.03-.77-.04-1.46-.04h-.04l-1.04.08s-.17.01-.84.01c-.21-.02-.35-.03-.4-.03h-.32s-3.09-.09-3.09-.09c-.37-.02-.65-.03-.81-.03h-.19l-.02.18c-.01.09-.02.17-.02.23,0,.04,0,.12.01.23l.02.15.15.03c1.55.27,1.92.35,2.01.37.12.03.27.08.45.16.04.13.05.19.06.22.03.45.03,1.59.03,3.38l-.02,3.82.02,2.3-.09,3.4c-.02.93-.1,1.1-.11,1.12-.05.06-.19.16-.67.21-.64.06-1.32.18-1.99.37l-.08.02-.04.07c-.08.13-.12.27-.13.43l-.02.22h1.56c.27,0,.53,0,.78-.03.76-.08,3.22-.12,7.34-.12l5,.15.02-.18c.02-.15.03-.31.05-.48.09-.8.26-1.78.51-3.01.06-.27.12-.57.17-.88l.04-.24h-.81Z"/>
    <path class="st1" d="M89.49,51.75l.06-1.33c1.6-.21,2.62-.54,3.06-.99.28-.31.5-1.13.65-2.44l.25-6.95.29-7.07c.03-.43.04-.69.04-.78,0-1.83-.1-2.9-.32-3.18-.21-.29-1.04-.57-2.47-.84-.36-.08-.64-.14-.84-.2-.03-.32-.04-.6-.04-.82v-.6c.47-.04,1.03-.06,1.67-.06l5.63.2c.13.01.31.03.54.04l.88.04c.22.26.44.61.66,1.04.47.95,1.1,2.34,1.88,4.18l.22.52,2.99,6.63c.07.15.18.38.31.68.21.46.42.9.61,1.33.2.43.41.89.65,1.39.24.51.44.96.63,1.36.18-.31.35-.66.52-1.04.51-1.2,1.01-2.3,1.5-3.3.84-1.77,1.99-4.48,3.44-8.13.23-.59.61-1.47,1.15-2.65.53-1.18.82-1.8.88-1.87.11-.1.35-.15.69-.15.13,0,.33,0,.6-.02.66-.04,1.46-.07,2.4-.1,1.34-.01,2.42-.05,3.24-.13.81-.07,1.27-.11,1.37-.11.13,0,.28.01.46.04.01.18.02.32.02.43l-.04.59c0,.12,0,.29-.02.53-1.21.18-2.19.46-2.94.82-.53.26-.79.59-.79.98v.29l.33,5.98c.04.55.14,3.26.31,8.14.04,1.09.12,2.48.25,4.16.03.21.04.37.04.49.01.31.08.52.2.6.12.09,1.16.45,3.34,1.11.01.21.02.36.02.47,0,.27,0,.55-.02.82-.35,0-1.11-.05-2.51-.21-1.4-.15-2.7-.23-3.92-.23-1.86,0-3.67.08-5.42.24-.23.03-.46.04-.67.06l.04-1.35c.53-.21,1.22-.38,2.1-.53.61-.1,1-.28,1.17-.53.16-.25.25-.94.25-2.07,0-.43,0-.81-.02-1.13-.07-1.37-.1-3.27-.12-5.7l-.33-6.9c-.04-.98-.08-1.65-.14-2.03l-4.79,11.17c-.12.26-.29.64-.52,1.13-.3.64-.49,1.08-.6,1.31-.99,2.41-1.67,4.25-2.06,5.53-.1.32-.25.73-.46,1.25h-1.48l-1.04-2.99c-.31-.78-.83-1.97-1.58-3.55-.44-.92-.78-1.67-1.02-2.25-.12-.24-.2-.41-.25-.53l-.23-.49c-.01-.08-.03-.14-.06-.2l-2.87-6.27-1.75-3.81-.15,9.24-.13,6c0,.99.18,1.7.55,2.12.37.42,1.15.79,2.36,1.08l.92.24v1.43c-.75-.01-1.54-.07-2.4-.16-.85-.1-1.98-.15-3.39-.15-.3,0-1.56.06-3.79.18h0Z"/>
    <path class="st1" d="M124.48,51.85l.04-1.31c.24-.08.67-.18,1.29-.29.99-.19,1.41-.52,1.63-.68.21-.15.47-.53.78-1.11l3.88-10.17,4.55-11.96h2.09l.18.35,3.34,7.93c.76,1.68,1.44,3.32,2.03,4.9.6,1.59,1.12,2.88,1.56,3.88.26.6.61,1.51,1.06,2.71.23.65.58,1.48,1.06,2.47.26.54.45.86.58.94.23.19.6.32,1.12.38.52.07,1.08.21,1.68.44.07.42.1.74.1.94,0,.09,0,.23-.02.42-.95,0-2-.04-3.14-.14-1.14-.09-2.17-.14-3.08-.14-1.01,0-1.74.01-2.19.04l-3.27.18-.94.04c0-.45.02-.88.06-1.29l2.13-.46c.64-.16,1.01-.3,1.11-.38.13-.13.19-.27.19-.44s-.03-.34-.1-.52l-.76-1.89-1.51-3.77-7.34-.02c-.27.61-.84,2.12-1.69,4.52-.24.68-.37,1.14-.37,1.38,0,.33.09.57.27.71.3.24.86.42,1.69.52.11.03.57.09,1.37.21.01.46.02.79.02.96,0,.14-.01.29-.04.44-.8,0-2.69-.11-5.69-.33l-.79.14c-.95.15-2.88.38-2.88.38ZM133.35,40.88c2.99.04,4.76.05,5.3.05l.48-.02c-.38-1.14-.88-2.48-1.5-4-.61-1.52-1.11-2.68-1.5-3.48l-2.78,7.43h0Z"/>
    <path class="st1" d="M152.17,50.52c.34-.18.83-.31,1.48-.4.65-.08,1.24-.22,1.77-.41.07-.26.1-.44.11-.56.03-.18.04-.8.04-1.85l-.02-4.29.08-2.31-.04-1.79.04-1.04c.04-1.4.06-2.71.06-3.93,0-2.67-.03-4.38-.1-5.12l-1.13-.23c-1.04-.07-1.73-.13-2.08-.19l-.04-1.15.08-.21c.64-.1,1.23-.15,1.77-.15.3,0,.89,0,1.79-.02.92.08,1.42.12,1.5.12l1.02-.06,2.4-.12c1.5-.15,3.08-.23,4.75-.23,2.63,0,4.72.67,6.27,2.01,1.55,1.34,2.33,2.88,2.33,4.61,0,1.3-.42,2.48-1.26,3.53-.84,1.06-2.12,1.86-3.86,2.4.15.27.36.58.61.94.54.77.97,1.43,1.31,1.97l3.06,4.99c.77,1.32,1.27,2.1,1.51,2.32.24.23.73.47,1.47.74.58.22,1.02.44,1.33.65.08.22.11.41.11.58,0,.12,0,.26-.02.44h-.52l-.38.02-1-.14h-.79c-.41-.07-.92-.1-1.52-.1l-1.92-.02c-.14,0-.59.04-1.34.14-.35.04-.62.07-.83.09l-.65-1.27c-.54-.96-.92-1.68-1.14-2.16-.56-1.25-1.53-3.23-2.9-5.95-.64-1.26-1.09-1.97-1.34-2.14-.38-.27-1.05-.41-1.98-.41-.26,0-.69.01-1.31.04-.04.37-.06.81-.06,1.33l.1,4.27-.11,3.62c.36.22.83.38,1.4.5,1,.2,1.86.45,2.58.73,0,.63-.03,1.1-.08,1.42-.24-.01-.4-.02-.46-.02l-.79.04c-2.76-.24-4.39-.37-4.9-.37-.33,0-.57,0-.71.02l-2.65.18c-.81.09-1.55.14-2.21.14h-.83c-.03-.32-.04-.53-.04-.61,0-.14.02-.34.06-.6h0ZM160.82,38.06c.61.03,1.06.04,1.34.04,2.18,0,3.72-.39,4.63-1.17.91-.79,1.37-1.83,1.37-3.14,0-.81-.11-1.57-.34-2.28-.22-.71-.5-1.24-.83-1.59-.47-.5-1.09-.88-1.86-1.14-.56-.19-1.46-.29-2.7-.29-.59,0-1.09.03-1.51.1l-.04.37.04,2.6-.06,1.58.02,2.1c-.03.59-.04,1.36-.06,2.29v.54h0Z"/>
    <path class="st1" d="M179.28,51.71v-1.38c.25-.08.67-.19,1.26-.33.83-.2,1.45-.42,1.85-.64.23-.4.35-.95.35-1.66l-.02-2.27.04-4.39-.02-1.04c.1-2.54.15-3.85.15-3.93l-.04-2.56.06-1.04-.1-2.2-.04-.83c-.01-.13-.06-.33-.14-.61-.53-.24-1.38-.4-2.56-.46-.28-.01-.5-.03-.67-.06l-.04-1.7,5.5.23c.68.03,1.1.04,1.27.04.76,0,1.97-.05,3.63-.15.94-.07,1.52-.1,1.77-.12.02.24.02.45.02.61,0,.22-.02.5-.04.85-.51.18-1.1.35-1.75.51s-1.2.32-1.62.49c-.08.33-.12.81-.12,1.44,0,.55.02,1,.05,1.35-.04,2.17-.05,3.84-.05,5.01l.02,5.08-.1,2.58.02,4.58c0,.1.04.25.12.44.78.16,1.49.28,2.12.35.12.01.5.07,1.17.15.05.38.08.71.08.96,0,.14,0,.36-.02.65-.16,0-.3,0-.38.02-.41.03-.65.04-.71.04-.09,0-.26-.02-.5-.06-.18-.03-1.03-.12-2.56-.27l-3.4-.04c-.68,0-1.66.07-2.96.19-.84.08-1.39.12-1.65.14h.02Z"/>
    <path class="st1" d="M209.07,27.34c.13.43.24,1.1.35,1.98.15,1.32.23,2.35.23,3.08,0,.23-.03.48-.08.75l-.19.05-1.38-.09-.23-.04c-.56-1.7-1.13-2.84-1.69-3.45-.98-1.03-2.12-1.54-3.44-1.54s-2.25.33-2.99.99c-.74.66-1.11,1.48-1.11,2.45,0,.82.37,1.61,1.1,2.37.72.76,2.24,1.48,4.58,2.17.78.23,1.73.6,2.83,1.11,1.11.51,1.95,1.07,2.53,1.67.77.8,1.29,1.56,1.58,2.3.29.74.43,1.66.43,2.76,0,1.21-.22,2.39-.67,3.56-.24.61-.64,1.2-1.17,1.75-.38.38-.98.84-1.79,1.36-.81.52-1.65.89-2.51,1.13-.87.23-1.98.35-3.33.35-.9,0-1.97-.13-3.21-.38l-2.31-.68c-.64-.18-1.05-.34-1.21-.48-.07-.05-.12-.18-.18-.37v-.21c0-.14-.03-1.02-.1-2.64-.03-.83-.04-1.42-.04-1.77v-.73l1.79-.04c.61,1.43,1.01,2.29,1.19,2.59.39.66.83,1.19,1.32,1.59.48.41,1.05.73,1.72.97.66.24,1.39.36,2.17.36.69,0,1.45-.15,2.29-.44.83-.3,1.5-.78,2.01-1.45.5-.68.76-1.39.76-2.17,0-.95-.44-1.83-1.33-2.64-.54-.5-1.98-1.17-4.34-2-2.36-.83-3.99-1.58-4.9-2.23-.91-.65-1.63-1.53-2.15-2.63-.53-1.1-.79-2.15-.79-3.17,0-2.04.73-3.78,2.19-5.2,1.46-1.43,3.61-2.14,6.46-2.14.61,0,1.52.11,2.73.33.73.13,1.7.4,2.9.81h.01Z"/>
    <path class="st1" d="M214.91,25.91h1.19c.09.14.15.25.19.31.36.63.64,1.03.83,1.23.16.04,1.05.06,2.63.06.99,0,1.86,0,2.63-.02l.38-.04,2.33-.02,4.34.02h5.94l1.13-.15c.16-.12.35-.43.54-.93.05-.12.12-.28.21-.49l.84-.02c.13,0,.32,0,.58.02.01.88.02,2.22.02,4l.02,1.71-.02.98c0,.33-.03.62-.08.87-.53.16-.99.27-1.38.31-.34-.5-.7-1.22-1.09-2.17-.39-.95-.64-1.48-.74-1.58-.15-.16-.34-.27-.54-.33-.31-.07-1.67-.1-4.08-.1-.36,0-.81.03-1.35.08-.07.5-.1.91-.1,1.23l.02,2.58v5.43l.06,6.11-.02,2.5c0,.88.08,1.55.23,2,.21.09.59.18,1.14.25.1.01.58.12,1.43.31.38.09.73.19,1.02.31.07.46.1.75.1.85,0,.12-.02.28-.06.5-.28.01-.52.02-.69.02-1.32,0-2.44-.05-3.37-.14-.92-.09-2.59-.14-5.02-.14-.38,0-1.51.08-3.38.23-.73.05-1.21.08-1.42.08-.01-.19-.03-.34-.04-.44l-.02-.44v-.15c.28-.37.81-.65,1.59-.83,1.33-.32,2.25-.61,2.77-.87.13-.24.2-.57.23-.96.09-1.54.14-3.99.14-7.35l-.1-7.04c0-2-.04-3.22-.11-3.64-.03-.12-.07-.2-.14-.26-.07-.05-.15-.09-.27-.1-.4-.05-1.69-.08-3.88-.08-1.21,0-2.01.12-2.42.35-.55.32-1.38,1.19-2.48,2.62-.32.41-.56.61-.71.61-.59-.31-.97-.56-1.14-.75.4-.83.95-2.5,1.66-5.01.2-.73.35-1.22.44-1.48h0Z"/>
    <path class="st1" d="M236.57,51.69l.04-1.31c.24-.08.67-.18,1.29-.29.99-.19,1.58-.37,1.8-.52.21-.15.47-.53.78-1.11l3.88-10.17,4.55-11.96h2.09l.17.35,3.34,7.93c.76,1.68,1.44,3.32,2.03,4.9.6,1.59,1.12,2.88,1.56,3.88.26.6.61,1.51,1.06,2.71.23.65.58,1.48,1.06,2.47.26.54.45.86.58.94.23.19.6.32,1.12.38.52.07,1.08.21,1.68.44.07.42.1.74.1.94,0,.09,0,.23-.02.42-.95,0-2-.04-3.14-.14-1.14-.09-2.17-.14-3.08-.14-1.01,0-1.74.01-2.19.04l-3.27.18-.94.04c0-.45.02-.88.06-1.29l2.13-.46c.64-.16,1.01-.3,1.11-.38.13-.13.19-.27.19-.44s-.03-.34-.1-.52l-.76-1.89-1.51-3.77-7.34-.02c-.27.61-.84,2.12-1.69,4.52-.24.68-.37,1.14-.37,1.38,0,.33.09.57.27.71.3.24.86.42,1.69.52.11.03.57.09,1.37.21.01.46.02.79.02.96,0,.14-.01.29-.04.44-.8,0-2.69-.11-5.69-.33l-.79.14c-.95.15-1.85.23-2.71.23h-.35ZM245.61,40.87c2.99.04,4.76.05,5.3.05l.48-.02c-.38-1.14-.88-2.48-1.5-4-.61-1.52-1.11-2.68-1.5-3.48l-2.78,7.43h0Z"/>
    <path class="st2" d="M54.63,26.65c1.51-.54,8.42-1.12,8.42,3.11,0,1.32-.92,2.18-2.26,2.21-2.98.06-1.77-3.46-1.86-3.46-7.15,0-4.27,15.37-3.98,17.77-.07,1.93-1.18,2.54-2.6,2.6-1.26.03-1.92-.55-2.28-1.54-.52-1.42-.64-15.11,6.38-19.67-1.92,0-7.65,3.82-10.13,11.42.16.35.26,4.2.03,5.67-.06,2.03-.58,3.37-2.43,3.37-1.51,0-2.59-1.12-2.41-3.37.36-4.04,1.8-15.84-2.3-17.74-4.36,1.64-2.28,16.75-2.28,17.74.07,1.58-.29,3.37-2.56,3.37-2.47,0-2.41-1.57-2.44-3.4,0-1.57.1-4.33.22-5.64-3.36-8.09-8.2-11.46-10.06-11.46,7.02,4.59,6.83,18.29,6.31,19.7-.35.99-.98,1.56-2.24,1.54-1.41-.1-2.57-.81-2.6-2.64.26-2.38,3.11-17.74-4.03-17.74-.1,0,1.15,3.52-1.86,3.46-1.35-.03-2.28-.9-2.28-2.21,0-4.23,6.92-3.69,8.43-3.11,3.49,1.28,6.76,5.01,8.65,9.44.77-4.56,3.43-9.85,6.73-10.43,3.3.54,5.87,5.87,6.76,10.36,1.79-4.1,4.23-7.38,8.65-9.37"/>
    <path class="st2" d="M24.03,51.87c0-1.19.99-2.15,2.18-2.15s2.17.96,2.17,2.15-.99,2.19-2.17,2.19-2.18-.96-2.18-2.19Z"/>
    <path class="st2" d="M32.1,51.35c0-1.19.96-2.15,2.18-2.15s2.14.96,2.14,2.15-.96,2.19-2.14,2.19-2.18-.96-2.18-2.19Z"/>
    <path class="st2" d="M41.88,51.13c0-1.22.99-2.19,2.18-2.19s2.18.96,2.18,2.19-.99,2.15-2.18,2.15-2.18-.96-2.18-2.15Z"/>
    <path class="st2" d="M50.15,51.77c0-1.19.96-2.15,2.18-2.15s2.17.96,2.17,2.15-.99,2.19-2.17,2.19-2.18-.97-2.18-2.19Z"/>
    <path class="st2" d="M38.12,3.52l-1.88-1.35h2.33s.71-2.17.71-2.17l.73,2.17h2.3s-1.85,1.35-1.85,1.35l.7,2.17-1.88-1.33-1.88,1.33.71-2.17Z"/>
    <path class="st2" d="M38.12,18.32l-1.88-1.35h2.33l.71-2.17.73,2.17h2.3l-1.85,1.35.7,2.17-1.88-1.32-1.88,1.32.71-2.17Z"/>
    <path class="st2" d="M30.29,4.38l-1.88-1.35h2.32s.71-2.17.71-2.17l.73,2.17h2.3s-1.85,1.34-1.85,1.34l.69,2.17-1.87-1.33-1.89,1.33.72-2.17Z"/>
    <path class="st2" d="M30.29,17.66l-1.88-1.35h2.32l.71-2.17.73,2.17h2.3l-1.85,1.35.69,2.17-1.87-1.33-1.89,1.33.72-2.17Z"/>
    <path class="st2" d="M22.89,6.26l-1.88-1.35h2.32l.72-2.17.73,2.17h2.3l-1.85,1.35.7,2.17-1.88-1.33-1.88,1.33.71-2.17Z"/>
    <path class="st2" d="M22.89,15.83l-1.88-1.35h2.32l.72-2.17.73,2.17h2.3l-1.85,1.35.7,2.16-1.88-1.33-1.88,1.33.71-2.16Z"/>
    <path class="st2" d="M45.97,4.38l-1.88-1.35h2.32s.72-2.17.72-2.17l.73,2.17h2.3s-1.85,1.34-1.85,1.34l.69,2.17-1.87-1.33-1.89,1.33.72-2.17Z"/>
    <path class="st2" d="M45.97,17.66l-1.88-1.35h2.32l.72-2.17.73,2.17h2.3l-1.85,1.35.69,2.17-1.87-1.33-1.89,1.33.72-2.17Z"/>
    <path class="st2" d="M53.37,6.26l-1.88-1.35h2.32l.72-2.17.73,2.17h2.3l-1.86,1.35.7,2.17-1.88-1.33-1.88,1.33.72-2.17Z"/>
    <path class="st2" d="M53.37,15.83l-1.88-1.35h2.32l.72-2.17.73,2.17h2.3l-1.86,1.35.7,2.16-1.88-1.33-1.88,1.33.72-2.16Z"/>
    <path class="st2" d="M58.97,11.1l-1.88-1.35h2.32s.72-2.17.72-2.17l.73,2.17h2.3s-1.86,1.35-1.86,1.35l.7,2.17-1.87-1.33-1.89,1.33.72-2.17Z"/>
    <path class="st2" d="M17.28,11.1l-1.88-1.35h2.32s.72-2.17.72-2.17l.73,2.17h2.31s-1.85,1.35-1.85,1.35l.7,2.17-1.88-1.33-1.89,1.33.72-2.17Z"/>
    <path class="st1" d="M78.25,60.04c-2.18-.19-3.49,1.54-4.71,3.89.09-4.08-1.86-8.21-2.21-10.14-.29-1.09,1.24-1.99,2.21-1.12.58.77.7,1.38.36,2.72.83.23,1.75-1.7.51-2.98-1.31-1.61-3.98-1.07-4.01,1.05.83,4.97,3.27,9.14,1.61,12.96-.2.48-.36.99-.42,1.15,1.57-6.67-7.37-15.5-7.63-18.25-.25-1.86,2.73-2.21,1.15.81,1.09-.07,1.67-1.22,1.44-2.03-.06-.8-.83-1.38-1.66-1.38-.9.1-1.73.81-1.89,1.51-.32,1.25.67,3.88,2.82,6.96,3.17,4.49,5.64,9.88,4.19,13.45-.93-6.19-5.83-5.68-8.42-9.89-1.89-3.01,3.46-4.59,1.67.16,2.5-.55,1.51-3.63-.45-4.01-.99-.19-2.4.52-2.65,1.95-.33,1.09.41,3.34,3.02,5.49-4.46-.36-6.93,3.44-4.3,5-.03-5.42,9.9-3.63,10.06,1.86-4.71-7.09-10.29.61-5.96,2.31,1.24.19,2.02-.16,2.46-.9.06-.09-2.02.29-2.18-1.19.03-.77.8-1.28,1.32-1.25,1.63.06,3.71,3.76-.61,6.58-.32-.35-.8-.61-1.31-.61-.83,0-1.54.61-1.67,1.44-.03-.03-.07.03-.16,0-7.4-.64-5.92-12.99-5.83-17.33.1-4.55-5.48-4.36-5.42-.64,0,3.4,2.57,15.59,6.69,17.77-5.77-.44-9.71-8.95-9.71-17.93,0-3.46-3.1-3.53-4.19-1.89-.83,1.08-2.02,3.61-3.25,6.65-1.24-3.05-2.43-5.57-3.25-6.65-1.09-1.64-4.19-1.57-4.19,1.89,0,8.98-3.94,17.49-9.71,17.93,4.13-2.18,6.69-14.37,6.69-17.77.07-3.72-5.52-3.91-5.42.64.09,4.33,1.57,16.69-5.83,17.33-.09.03-.13-.03-.16,0-.13-.83-.84-1.44-1.67-1.44-.52,0-.99.26-1.31.61-4.33-2.82-2.25-6.51-.61-6.58.52-.03,1.28.48,1.32,1.25-.16,1.48-2.24,1.09-2.18,1.19.45.74,1.22,1.09,2.46.9,4.33-1.7-1.24-9.4-5.96-2.31.16-5.49,10.09-7.29,10.06-1.86,2.63-1.57.16-5.36-4.3-5,2.6-2.15,3.34-4.4,3.02-5.49-.25-1.44-1.67-2.15-2.65-1.95-1.96.38-2.95,3.46-.45,4.01-1.79-4.75,3.56-3.17,1.67-.16-2.59,4.21-7.5,3.69-8.42,9.89-1.44-3.56,1.02-8.95,4.19-13.45,2.14-3.08,3.14-5.71,2.82-6.96-.17-.7-.99-1.41-1.89-1.51-.83,0-1.6.58-1.66,1.38-.23.8.35,1.96,1.44,2.03-1.57-3.02,1.41-2.67,1.15-.81-.26,2.76-9.2,11.58-7.63,18.25-.07-.16-.22-.68-.42-1.15-1.66-3.82.77-7.99,1.61-12.96-.03-2.12-2.7-2.66-4.01-1.05-1.24,1.28-.32,3.21.51,2.98-.35-1.35-.22-1.95.36-2.72.97-.87,2.5.03,2.21,1.12-.35,1.93-2.3,6.07-2.21,10.14C3.49,61.59,2.18,59.85,0,60.04c4.01.77,2.76,14.7,13.94,16.27.22.7.9,1.25,1.67,1.25.51,0,.99-.26,1.32-.61v-.03c.09.03.22.03.32.05,14.61,1.38,18.3-13.73,18.91-18.79,1.31,1.73,2.11,3.87,2.65,5.47-2.26,5.91-4.02,12.79.32,13.46h.07c4.34-.67,2.58-7.55.32-13.46.54-1.6,1.34-3.74,2.65-5.47.61,5.06,4.29,20.18,18.91,18.79.1-.03.22-.03.32-.05v.03c.32.35.8.61,1.32.61.77,0,1.44-.55,1.67-1.25,11.18-1.58,9.93-15.5,13.94-16.27h-.03ZM40.45,72.77c.13.94.1,2.91-1.3,3.12h-.11c-1.38-.23-1.41-2.19-1.28-3.12,0,0,.14-2.44.76-5.35.09-.4.37-1.45.55-2.06.01-.04.02-.08.03-.11.01.03.02.07.03.11.18.61.47,1.67.55,2.06.62,2.9.76,5.35.76,5.35h0Z"/>
  </g>
</svg>